<?xml version="1.0" encoding="utf-8"?>
<!-- Generator: Adobe Illustrator 22.0.1, SVG Export Plug-In . SVG Version: 6.00 Build 0)  -->
<svg version="1.1" id="Camada_1" xmlns="http://www.w3.org/2000/svg" xmlns:xlink="http://www.w3.org/1999/xlink" x="0px" y="0px"
	 viewBox="0 0 48 48" style="enable-background:new 0 0 48 48;" xml:space="preserve">
<style type="text/css">
	.st0{fill:#8D24A9;}
	.st1{fill:none;}
	.st2{fill:#FFFFFF;stroke:#FF0000;stroke-miterlimit:10;}
	.st3{fill:none;stroke:#FF0000;stroke-miterlimit:10;}
</style>
<path class="st0" d="M23.6,21.8c-4.5-1.2-6-2.4-6-4.3c0-2.2,2-3.7,5.4-3.7c3.6,0,4.9,1.7,5,4.2h4.4c-0.1-3.4-2.2-6.6-6.4-7.6V6h-6
	v4.3c-3.9,0.9-7,3.4-7,7.2c0,4.6,3.8,6.9,9.4,8.3c5,1.2,6,3,6,4.8c0,1.4-1,3.6-5.4,3.6c-4.1,0-5.8-1.8-6-4.2h-4.4
	c0.3,4.4,3.5,6.8,7.4,7.7V42h6v-4.3c3.9-0.8,7-3,7-7.1C33,24.9,28.1,23,23.6,21.8z"/>
<path class="st1" d="M0,0h48v48H0V0z"/>
<line class="st2" x1="4.1" y1="6" x2="42.9" y2="42"/>
<line class="st3" x1="41.2" y1="6" x2="5.3" y2="42"/>
</svg>
