<?xml version="1.0" encoding="iso-8859-1"?>
<!-- Generator: Adobe Illustrator 18.0.0, SVG Export Plug-In . SVG Version: 6.00 Build 0)  -->
<!DOCTYPE svg PUBLIC "-//W3C//DTD SVG 1.1//EN" "http://www.w3.org/Graphics/SVG/1.1/DTD/svg11.dtd">
<svg version="1.1" id="Capa_1" xmlns="http://www.w3.org/2000/svg" xmlns:xlink="http://www.w3.org/1999/xlink" x="0px" y="0px"
	 viewBox="0 0 492.285 492.285" style="enable-background:new 0 0 492.285 492.285;" xml:space="preserve">
<g>
	<path d="M407.574,266.789c0-12.98-10.56-23.539-23.543-23.539c-12.98,0-23.541,10.559-23.541,23.539
		c0,12.982,10.561,23.543,23.541,23.543C397.014,290.332,407.574,279.772,407.574,266.789z M384.031,281.832
		c-8.293,0-15.041-6.748-15.041-15.043c0-8.293,6.748-15.039,15.041-15.039c8.295,0,15.043,6.746,15.043,15.039
		C399.074,275.084,392.326,281.832,384.031,281.832z"/>
	<path d="M412.969,294.041c-12.98,0-23.541,10.561-23.541,23.543c0,12.98,10.561,23.541,23.541,23.541
		c12.98,0,23.541-10.56,23.541-23.541C436.51,304.602,425.949,294.041,412.969,294.041z M412.969,332.625
		c-8.293,0-15.041-6.748-15.041-15.041c0-8.295,6.748-15.043,15.041-15.043c8.295,0,15.041,6.748,15.041,15.043
		C428.01,325.877,421.264,332.625,412.969,332.625z"/>
	<path d="M355.096,294.041c-12.98,0-23.543,10.561-23.543,23.543c0,12.98,10.563,23.541,23.543,23.541
		c12.98,0,23.541-10.56,23.541-23.541C378.637,304.602,368.076,294.041,355.096,294.041z M355.096,332.625
		c-8.295,0-15.043-6.748-15.043-15.041c0-8.295,6.748-15.043,15.043-15.043s15.041,6.748,15.041,15.043
		C370.137,325.877,363.391,332.625,355.096,332.625z"/>
	<path d="M141.326,272.436h-15.729v-15.73c0-9.943-8.088-18.031-18.031-18.031h-3.445c-9.939,0-18.027,8.088-18.027,18.031v15.73
		H70.361c-9.941,0-18.029,8.088-18.029,18.029v3.443c0,9.943,8.088,18.031,18.029,18.031h15.732v15.728
		c0,9.943,8.088,18.031,18.027,18.031h3.445c9.943,0,18.031-8.088,18.031-18.031V311.94h15.729c9.943,0,18.031-8.088,18.031-18.031
		v-3.443C159.357,280.523,151.27,272.436,141.326,272.436z M150.857,293.908c0,5.256-4.275,9.531-9.531,9.531h-19.979
		c-2.348,0-4.25,1.902-4.25,4.25v19.978c0,5.256-4.275,9.531-9.531,9.531h-3.445c-5.254,0-9.527-4.275-9.527-9.531V307.69
		c0-2.348-1.902-4.25-4.25-4.25H70.361c-5.254,0-9.529-4.275-9.529-9.531v-3.443c0-5.256,4.275-9.529,9.529-9.529h19.982
		c2.348,0,4.25-1.902,4.25-4.25v-19.98c0-5.256,4.273-9.531,9.527-9.531h3.445c5.256,0,9.531,4.275,9.531,9.531v19.98
		c0,2.348,1.902,4.25,4.25,4.25h19.979c5.256,0,9.531,4.273,9.531,9.529V293.908z"/>
	<path d="M374.709,174.244l-0.338,0.004c-0.066-0.002-0.133-0.004-0.188-0.004H252.633v-64.02c0-15.072-12.262-27.334-27.334-27.334
		H17.436c-2.348,0-4.25,1.902-4.25,4.25c0,2.348,1.902,4.25,4.25,4.25h207.863c10.385,0,18.834,8.449,18.834,18.834v64.02H117.971
		c-0.078,0-0.1-0.002-0.18,0.002l-0.217-0.002C52.744,174.244,0,226.988,0,291.818c0,64.832,52.744,117.576,117.574,117.576
		c51.686,0,97.469-34.057,112.465-83.213h32.207c14.998,49.156,60.781,83.213,112.463,83.213
		c64.832,0,117.576-52.744,117.576-117.576C492.285,226.988,439.541,174.244,374.709,174.244z M374.709,400.895
		c-48.957,0-92.205-32.934-105.174-80.09c-0.506-1.844-2.184-3.123-4.098-3.123h-38.59c-1.914,0-3.592,1.279-4.098,3.123
		c-12.967,47.156-56.217,80.09-105.176,80.09c-29.855,0-56.945-12.063-76.66-31.563h51.682c2.348,0,4.25-1.902,4.25-4.25
		c0-2.348-1.902-4.25-4.25-4.25H33.172C17.76,342.018,8.5,317.98,8.5,291.818c0-33.471,15.158-63.463,38.982-83.486h28.113
		c2.348,0,4.25-1.902,4.25-4.25c0-2.348-1.902-4.25-4.25-4.25H59.045c16.943-10.815,37.061-17.088,58.629-17.088l0.217,0.002
		c0.043,0,0.1,0,0.156-0.002H374.07c0.078,0.004,0.156,0.006,0.219,0.006l0.42-0.006c24.064,0,46.328,7.838,64.385,21.088H308.596
		c-2.348,0-4.25,1.902-4.25,4.25c0,2.348,1.902,4.25,4.25,4.25H449.32c21.199,19.91,34.465,48.176,34.465,79.486
		C483.785,351.963,434.853,400.895,374.709,400.895z"/>
</g>
<g>
</g>
<g>
</g>
<g>
</g>
<g>
</g>
<g>
</g>
<g>
</g>
<g>
</g>
<g>
</g>
<g>
</g>
<g>
</g>
<g>
</g>
<g>
</g>
<g>
</g>
<g>
</g>
<g>
</g>
</svg>
